<svg width="16" height="16" viewBox="0 0 16 16" fill="none" xmlns="http://www.w3.org/2000/svg">
<path fill-rule="evenodd" clip-rule="evenodd" d="M8 1C7.46957 1 6.96086 1.21071 6.58579 1.58579C6.21071 1.96086 6 2.46957 6 3V7.5C6 7.63261 5.94732 7.75979 5.85355 7.85355C5.75979 7.94732 5.63261 8 5.5 8C5.36739 8 5.24021 7.94732 5.14645 7.85355C5.05268 7.75979 5 7.63261 5 7.5V3C5 2.20435 5.31607 1.44129 5.87868 0.87868C6.44129 0.31607 7.20435 0 8 0C8.79565 0 9.55871 0.31607 10.1213 0.87868C10.6839 1.44129 11 2.20435 11 3V7.5C11 7.63261 10.9473 7.75979 10.8536 7.85355C10.7598 7.94732 10.6326 8 10.5 8C10.3674 8 10.2402 7.94732 10.1464 7.85355C10.0527 7.75979 10 7.63261 10 7.5V3C10 2.46957 9.78929 1.96086 9.41421 1.58579C9.03914 1.21071 8.53043 1 8 1Z" fill="#E7E7E7"/>
<path fill-rule="evenodd" clip-rule="evenodd" d="M3.40474 6C3.2807 5.99987 3.16104 6.04586 3.06901 6.12902C2.97698 6.21218 2.91914 6.32658 2.90674 6.45L1.99474 13.35C1.97377 13.5586 1.99677 13.7693 2.06226 13.9685C2.12776 14.1677 2.23428 14.3509 2.37496 14.5064C2.51564 14.6619 2.68736 14.7862 2.87903 14.8712C3.0707 14.9562 3.27806 15.0001 3.48774 15H12.5117C12.7214 15.0001 12.9288 14.9562 13.1204 14.8712C13.3121 14.7862 13.4838 14.6619 13.6245 14.5064C13.7652 14.3509 13.8717 14.1677 13.9372 13.9685C14.0027 13.7693 14.0257 13.5586 14.0047 13.35L13.0917 6.45C13.0793 6.32675 13.0217 6.21249 12.9298 6.12936C12.838 6.04622 12.7186 6.00012 12.5947 6H3.40474ZM1.91174 6.35C1.94893 5.97992 2.12229 5.63686 2.39818 5.3874C2.67406 5.13794 3.03279 4.99987 3.40474 5H12.5947C12.9667 4.99987 13.3254 5.13794 13.6013 5.3874C13.8772 5.63686 14.0505 5.97992 14.0877 6.35L14.9997 13.252C15.0344 13.5995 14.9958 13.9505 14.8866 14.2822C14.7773 14.6139 14.5997 14.919 14.3653 15.1779C14.1309 15.4368 13.8449 15.6437 13.5256 15.7853C13.2064 15.9269 12.861 16 12.5117 16H3.48774C3.1384 16.0001 2.79292 15.9269 2.47359 15.7853C2.15426 15.6436 1.86816 15.4366 1.63374 15.1776C1.39932 14.9186 1.22178 14.6133 1.11258 14.2815C1.00338 13.9496 0.964942 13.5986 0.999736 13.251L1.91174 6.351V6.35Z" fill="#E7E7E7"/>
</svg>
