<svg width="13" height="14" viewBox="0 0 13 14" fill="none" xmlns="http://www.w3.org/2000/svg">
<g clip-path="url(#clip0)">
<path fill-rule="evenodd" clip-rule="evenodd" d="M6.5 12.6875C8.00842 12.6875 9.45506 12.0883 10.5217 11.0217C11.5883 9.95506 12.1875 8.50842 12.1875 7C12.1875 5.49158 11.5883 4.04494 10.5217 2.97833C9.45506 1.91172 8.00842 1.3125 6.5 1.3125C4.99158 1.3125 3.54494 1.91172 2.47833 2.97833C1.41172 4.04494 0.8125 5.49158 0.8125 7C0.8125 8.50842 1.41172 9.95506 2.47833 11.0217C3.54494 12.0883 4.99158 12.6875 6.5 12.6875ZM6.5 13.5C8.22391 13.5 9.87721 12.8152 11.0962 11.5962C12.3152 10.3772 13 8.72391 13 7C13 5.27609 12.3152 3.62279 11.0962 2.40381C9.87721 1.18482 8.22391 0.5 6.5 0.5C4.77609 0.5 3.12279 1.18482 1.90381 2.40381C0.68482 3.62279 0 5.27609 0 7C0 8.72391 0.68482 10.3772 1.90381 11.5962C3.12279 12.8152 4.77609 13.5 6.5 13.5Z" fill="#7A7A7A"/>
<path d="M7.25559 5.85278L5.39496 6.08597L5.32834 6.39472L5.69396 6.46216C5.93284 6.51903 5.97996 6.60516 5.92796 6.84322L5.32834 9.66097C5.17071 10.3898 5.41365 10.7327 5.98484 10.7327C6.42765 10.7327 6.94196 10.5279 7.17515 10.2468L7.24665 9.90878C7.08415 10.0518 6.8469 10.1087 6.68927 10.1087C6.46584 10.1087 6.38459 9.95185 6.44227 9.6756L7.25559 5.85278Z" fill="#7A7A7A"/>
<path d="M6.5 4.96875C6.94873 4.96875 7.3125 4.60498 7.3125 4.15625C7.3125 3.70752 6.94873 3.34375 6.5 3.34375C6.05127 3.34375 5.6875 3.70752 5.6875 4.15625C5.6875 4.60498 6.05127 4.96875 6.5 4.96875Z" fill="#7A7A7A"/>
</g>
<defs>
<clipPath id="clip0">
<rect width="13" height="13" fill="white" transform="translate(0 0.5)"/>
</clipPath>
</defs>
</svg>
