<svg width="16" height="14" viewBox="0 0 16 14" fill="none" xmlns="http://www.w3.org/2000/svg">
<g clip-path="url(#clip0)">
<path d="M15.6363 3.43123L13.9505 0.740318C13.7999 0.49876 13.5324 0.350708 13.2467 0.350708H2.75315C2.46743 0.350708 2.1999 0.49876 2.04925 0.740318L0.363535 3.43123C-0.405296 4.6572 0.103795 6.30395 1.35055 6.82863V12.7351C1.35055 13.239 1.72198 13.6494 2.18172 13.6494H13.8181C14.2778 13.6494 14.6493 13.239 14.6493 12.7351V6.82863C15.896 6.30395 16.4051 4.6572 15.6363 3.43123ZM13.8181 12.7351C13.8181 12.7871 13.7973 12.8156 13.8129 12.8182L2.21289 12.826C2.20509 12.8208 2.18172 12.7923 2.18172 12.7351V9.49357H13.8181V12.7351ZM2.18172 8.6624V7.00006H2.24665C3.01548 7.00006 3.696 6.6624 4.16354 6.14032C4.63107 6.6624 5.31418 7.00006 6.08042 7.00006C6.84925 7.00006 7.52977 6.6624 7.9973 6.14032C8.46483 6.6624 9.14795 7.00006 9.91419 7.00006C10.683 7.00006 11.3635 6.6624 11.8311 6.14032C12.3012 6.6624 12.9817 7.00006 13.7505 7.00006H13.8155V8.6624H2.18172ZM15.0181 5.37668C14.8155 5.80785 14.4441 6.09097 13.9973 6.15071C13.9168 6.1611 13.8363 6.16629 13.7531 6.16629C13.2518 6.16629 12.7921 5.9585 12.4544 5.58188L11.8363 4.89616L11.2181 5.58707C10.8804 5.9637 10.4207 6.17149 9.91938 6.17149C9.41808 6.17149 8.95834 5.9637 8.62068 5.58707L7.9999 4.89616L7.38172 5.58707C7.04406 5.9637 6.58431 6.17149 6.08302 6.17149C5.58172 6.17149 5.12198 5.9637 4.78431 5.58707L4.16354 4.89616L3.54535 5.58707C3.20769 5.9637 2.74795 6.17149 2.24665 6.17149C2.16354 6.17149 2.08302 6.16629 2.0025 6.1559C1.55574 6.09616 1.18431 5.81305 0.981717 5.38188C0.755743 4.89876 0.786912 4.32214 1.06743 3.87798L2.75315 1.18188H13.2467L14.9324 3.87279C15.2129 4.31954 15.2441 4.89357 15.0181 5.37668Z" fill="#FC8313"/>
</g>
<defs>
<clipPath id="clip0">
<rect width="16" height="13.2987" fill="white" transform="translate(0 0.350708)"/>
</clipPath>
</defs>
</svg>
