<svg width="184" height="34" viewBox="0 0 184 34" fill="none" xmlns="http://www.w3.org/2000/svg">
<g clip-path="url(#clip0)">
<path d="M18.7777 13.2592V2.31499H14.5934V0.205566H25.251V2.31499H21.008V13.2592H18.7777Z" fill="white"/>
<path d="M31.341 13.2592V0.205566H40.7074L40.0308 2.31499H33.5678L33.5886 5.27371H39.3783V7.37624H33.5886L33.5678 11.1635H40.0308L40.7074 13.2592H31.341Z" fill="white"/>
<path d="M45.7445 0.205566H48.1854L52.4284 8.72613L56.6783 0.205566H59.1226L52.4284 13.5837L45.7445 0.205566Z" fill="white"/>
<path d="M64.3323 13.2592V0.205566H73.6953L73.0221 2.31499H66.5591L66.5799 5.27371H72.3696V7.37624H66.5799L66.5591 11.1635H73.2844L73.9611 13.2592H64.3323Z" fill="white"/>
<path d="M125.702 13.2523V2.30812H121.522V0.202148H132.179V2.30812H127.936V13.2523H125.702Z" fill="white"/>
<path d="M143.137 13.4663C142.261 13.4889 141.389 13.3293 140.577 12.9977C139.765 12.6661 139.031 12.1697 138.421 11.5399C137.217 10.2325 136.549 8.52013 136.549 6.74274C136.549 4.96535 137.217 3.25296 138.421 1.94561C139.673 0.703624 141.365 0.00671387 143.129 0.00671387C144.892 0.00671387 146.584 0.703624 147.836 1.94561C149.051 3.24769 149.726 4.96206 149.726 6.74274C149.726 8.52341 149.051 10.2378 147.836 11.5399C147.229 12.1687 146.498 12.6647 145.689 12.9963C144.88 13.3279 144.011 13.4879 143.137 13.4663ZM143.137 2.13204C142.561 2.11841 141.989 2.22776 141.458 2.4528C140.928 2.67783 140.452 3.01337 140.061 3.43705C139.248 4.34052 138.797 5.5132 138.797 6.72893C138.797 7.94466 139.248 9.11734 140.061 10.0208C140.453 10.4258 140.921 10.7495 141.439 10.9736C141.956 11.1976 142.512 11.3175 143.076 11.3265C143.639 11.3355 144.199 11.2333 144.723 11.0259C145.247 10.8184 145.726 10.5098 146.13 10.1175L146.224 10.0208C147.037 9.11734 147.487 7.94466 147.487 6.72893C147.487 5.5132 147.037 4.34052 146.224 3.43705C145.831 3.01328 145.353 2.67779 144.821 2.45281C144.289 2.22782 143.715 2.11849 143.137 2.13204Z" fill="white"/>
<path d="M174.637 13.2523V0.202148H184L183.323 2.30812H176.86L176.885 5.2703H182.671V7.36937H176.885L176.86 11.1567H183.323L184 13.2523H174.637Z" fill="white"/>
<path d="M166.513 13.2592L158.576 4.44513V13.2592H156.384V0.205566H157.644L165.409 8.81244V0.205566H167.601V13.2592H166.513Z" fill="white"/>
<path d="M90.9919 13.2627L83.0548 4.44864V13.2627H80.866V0.212524H82.1226L89.8906 8.8194V0.212524H92.0794V13.2627H90.9919Z" fill="white"/>
<path d="M106.334 12.1371C106.959 12.5683 107.652 12.8894 108.385 13.0865C109.251 13.34 110.148 13.4679 111.05 13.4663C112.282 13.4991 113.492 13.1361 114.503 12.4306C114.984 12.1087 115.375 11.6699 115.64 11.1555C115.905 10.641 116.036 10.0676 116.018 9.48909C116.022 9.01469 115.928 8.54458 115.742 8.10813C115.579 7.71836 115.338 7.36594 115.035 7.0724C114.72 6.77468 114.366 6.5225 113.982 6.32323C113.618 6.13015 113.241 5.96398 112.853 5.82608C112.538 5.71906 112.131 5.58786 111.634 5.43596L110.198 5.03893L109.594 4.80762C109.435 4.76285 109.285 4.69291 109.148 4.60047C108.748 4.29666 108.541 4.01011 108.541 3.75808V3.62344C108.54 3.41665 108.592 3.21308 108.691 3.03189C108.791 2.8507 108.935 2.69784 109.11 2.58771C109.679 2.24233 110.341 2.08079 111.006 2.12509C112.26 2.14151 113.484 2.51516 114.534 3.20224L115.255 3.64761V1.23091L115.035 1.09627C113.819 0.355522 112.418 -0.0240678 110.995 0.00185462C109.569 0.00185462 108.43 0.347096 107.605 0.978888C106.907 1.52331 106.454 2.32269 106.345 3.20125C106.236 4.07981 106.481 4.9656 107.025 5.66382C107.088 5.74717 107.156 5.82671 107.229 5.90203C107.534 6.18686 107.884 6.42007 108.264 6.59252C108.631 6.77222 109.011 6.92454 109.4 7.04824C109.68 7.138 110.118 7.26919 110.702 7.43146L111.42 7.6455L111.606 7.7042L112.366 7.95622C112.592 8.02562 112.808 8.12799 113.005 8.26003C113.249 8.40681 113.462 8.60178 113.629 8.83314C113.736 8.97959 113.794 9.15594 113.795 9.33719V9.50636C113.802 9.76567 113.739 10.022 113.612 10.2486C113.486 10.4751 113.301 10.6636 113.077 10.7941C112.446 11.1811 111.714 11.3699 110.974 11.3361C110.176 11.336 109.383 11.1946 108.634 10.9184C107.994 10.6867 107.397 10.352 106.866 9.92755L106.334 9.48564V12.1371Z" fill="white"/>
<path d="M0 12.1366C0.631219 12.569 1.33183 12.8901 2.07145 13.086C2.93599 13.3393 3.8324 13.4672 4.73326 13.4658C5.97189 13.5004 7.18904 13.1374 8.20639 12.4301C8.87064 11.957 9.35462 11.2725 9.57915 10.4885C9.80368 9.70451 9.75545 8.86754 9.44236 8.11455C9.28553 7.72568 9.05052 7.37316 8.75188 7.07883C8.44378 6.7814 8.09507 6.52916 7.71615 6.32965C7.35249 6.13657 6.97517 5.97041 6.58721 5.83251C6.27304 5.72548 5.86566 5.59429 5.36506 5.44238L3.92885 5.0419L3.32813 4.81059C3.16876 4.76796 3.01805 4.69786 2.88277 4.60345C2.47884 4.29618 2.27514 4.01308 2.27514 3.76106V3.62641C2.27442 3.41962 2.32634 3.21605 2.42599 3.03486C2.52565 2.85367 2.66977 2.70082 2.84479 2.59069C3.41469 2.24697 4.076 2.08555 4.74017 2.12806C5.97648 2.15161 7.18124 2.52249 8.21675 3.19831L8.93831 3.64367V1.22698L8.71735 1.09234C7.50307 0.35255 6.10311 -0.0258827 4.68148 0.00137526C3.25563 0.00137526 2.11633 0.346617 1.29466 0.992219C0.948025 1.26219 0.657968 1.59779 0.441048 1.97987C0.224128 2.36194 0.0845939 2.78301 0.0304138 3.21901C-0.0237663 3.65502 0.0084689 4.09743 0.125279 4.52097C0.242088 4.94452 0.441184 5.34091 0.711198 5.6875C0.770881 5.76737 0.835449 5.84347 0.904533 5.91536C1.21003 6.20019 1.55984 6.4334 1.94026 6.60585C2.30858 6.78494 2.68933 6.93724 3.07956 7.06157C3.35575 7.15133 3.79421 7.28252 4.37766 7.44478L5.09922 7.65883L5.28565 7.71753L6.04173 7.96955C6.26837 8.03895 6.48358 8.14132 6.68043 8.27336C6.92536 8.42013 7.13795 8.61511 7.30531 8.84647C7.41509 8.99158 7.47448 9.16856 7.47448 9.35052V9.51969C7.47489 9.77879 7.40636 10.0333 7.27592 10.2572C7.14548 10.4811 6.95783 10.6662 6.73221 10.7936C6.09987 11.1797 5.36629 11.3673 4.62624 11.3322C3.82752 11.3349 3.03476 11.1946 2.2855 10.9179C1.64726 10.6862 1.0513 10.3515 0.521315 9.92707L0 9.48516V12.1366Z" fill="white"/>
<path d="M80.714 33.2072H76.6091V32.7998H77.1615C77.7968 32.7998 78.1144 32.5685 78.1144 32.1094V25.0871C78.1205 24.9603 78.0915 24.8341 78.0306 24.7227C77.9697 24.6112 77.8792 24.5187 77.7691 24.4553C77.3565 24.2938 76.913 24.2266 76.471 24.2586V23.8408C76.9511 23.8652 77.4311 23.7908 77.8812 23.6221C78.3314 23.4535 78.7421 23.1942 79.088 22.8603L79.4332 22.8016V32.1094C79.4192 32.209 79.4281 32.3105 79.4592 32.4063C79.4903 32.502 79.5428 32.5893 79.6127 32.6617C79.8423 32.7764 80.0998 32.8231 80.355 32.7964H80.7002L80.714 33.2072Z" fill="white"/>
<path d="M83.659 33.4145L83.5105 32.9691C84.5599 32.484 85.5361 31.8541 86.4105 31.0979C87.2502 30.3497 87.8978 29.4108 88.299 28.3601C87.7328 28.8987 86.8697 29.1657 85.7097 29.1611C85.3382 29.1597 84.9719 29.0742 84.6383 28.911C84.3046 28.7478 84.0123 28.511 83.7832 28.2186C83.5055 27.9153 83.2907 27.5599 83.1513 27.173C83.0119 26.7861 82.9507 26.3753 82.9712 25.9646C82.9918 25.5538 83.0937 25.1513 83.271 24.7802C83.4483 24.4091 83.6975 24.0769 84.0042 23.8029L84.0456 23.7649C84.7246 23.135 85.619 22.789 86.5452 22.7983C86.9781 22.7835 87.4091 22.8621 87.8089 23.029C88.2087 23.1958 88.5678 23.4468 88.8618 23.7649C89.4624 24.4238 89.7831 25.2905 89.7559 26.1816C89.7668 27.0923 89.6003 27.9964 89.2657 28.8435C88.9587 29.618 88.4983 30.3226 87.9123 30.9149C86.7258 32.0905 85.2634 32.9499 83.659 33.4145ZM85.4646 28.1288C85.837 28.3527 86.2662 28.4642 86.7005 28.4499C86.9326 28.4531 87.1622 28.4024 87.3713 28.3017C87.5804 28.2011 87.7632 28.0532 87.9054 27.8699C88.2342 27.4623 88.4058 26.9502 88.3888 26.4268C88.4096 25.6671 88.1433 24.9274 87.643 24.3553C87.4258 24.0926 87.1531 23.8811 86.8445 23.7361C86.5359 23.591 86.1991 23.516 85.8581 23.5164C85.6107 23.508 85.3647 23.5565 85.139 23.6583C84.9134 23.76 84.7141 23.9123 84.5566 24.1033C84.2304 24.5083 84.059 25.0162 84.0733 25.536C84.1 26.1808 84.3069 26.8051 84.6705 27.3382C84.8666 27.6627 85.1393 27.9341 85.4646 28.1288Z" fill="white"/>
<path d="M97.4134 24.4622C97.4134 25.4358 96.6205 26.3484 95.0347 27.2L95.0657 27.2587C95.3362 27.1313 95.63 27.0608 95.9288 27.0516C96.256 27.0405 96.582 27.096 96.887 27.2147C97.192 27.3334 97.4698 27.5128 97.7034 27.742C97.9435 27.9957 98.1288 28.2962 98.2476 28.6247C98.3664 28.9532 98.4162 29.3026 98.3939 29.6512C98.4097 30.1746 98.3034 30.6945 98.0835 31.1697C97.8636 31.6448 97.536 32.0623 97.1268 32.389C96.2971 33.0786 95.2468 33.4463 94.1681 33.4247C93.6826 33.4397 93.1981 33.372 92.7354 33.2245C92.3057 33.0653 91.9133 32.8197 91.5823 32.5029L91.8205 30.9286H92.2071C92.3038 31.4214 92.5329 31.8786 92.87 32.2509C93.1738 32.5582 93.7124 32.7135 94.4926 32.7135C94.8265 32.7316 95.1606 32.6822 95.475 32.5683C95.7894 32.4544 96.0776 32.2784 96.3224 32.0507C96.5535 31.8176 96.734 31.5395 96.8528 31.2336C96.9716 30.9277 97.0261 30.6006 97.0129 30.2727C97.048 29.636 96.8463 29.0088 96.4467 28.5119C96.2383 28.2902 95.9837 28.1171 95.7009 28.0049C95.418 27.8927 95.114 27.8442 94.8103 27.8629C94.3991 27.8597 93.9894 27.9108 93.5916 28.0148V27.597L94.2475 27.2518C94.754 27.0396 95.1966 26.6993 95.5318 26.2644C95.7676 25.8935 95.8877 25.4609 95.8771 25.0215C95.8771 24.2344 95.3811 23.8385 94.3891 23.8339C93.778 23.8438 93.1914 24.0758 92.7388 24.4864C92.4799 24.7039 92.2796 24.8834 92.1416 25.0215L91.8585 24.7246C92.2152 24.1181 92.7307 23.6204 93.3494 23.2852C93.9682 22.9499 94.6666 22.7899 95.3696 22.8223C95.9122 22.7911 96.4478 22.9565 96.8783 23.2884C97.0481 23.4328 97.1841 23.6128 97.2766 23.8157C97.3691 24.0186 97.4158 24.2393 97.4134 24.4622Z" fill="white"/>
<path d="M102.751 33.2072H101.025C101.587 31.9471 102.019 31.0115 102.326 30.397C102.633 29.7824 103.134 28.909 103.828 27.7628C104.589 26.5337 105.41 25.3434 106.29 24.1964H102.423C101.911 24.1757 101.408 24.3277 100.994 24.628C100.838 24.7232 100.704 24.8507 100.601 25.002C100.499 25.1533 100.43 25.3248 100.4 25.5049L99.982 25.4428L100.579 22.9467H107.543L107.515 23.2919C106.231 24.9623 105.121 26.7601 104.204 28.657C103.479 30.0858 102.988 31.6223 102.751 33.2072Z" fill="white"/>
</g>
<defs>
<clipPath id="clip0">
<rect width="184" height="33.4263" fill="white"/>
</clipPath>
</defs>
</svg>
