<svg width="16" height="16" viewBox="0 0 16 16" fill="none" xmlns="http://www.w3.org/2000/svg">
<path fill-rule="evenodd" clip-rule="evenodd" d="M3.92551 1.74478C3.87012 1.67373 3.80028 1.61527 3.72059 1.57324C3.64091 1.53122 3.55321 1.50661 3.4633 1.50103C3.37339 1.49545 3.28332 1.50904 3.19905 1.54089C3.11479 1.57274 3.03825 1.62213 2.97451 1.68578L2.00451 2.65578C1.55151 3.10878 1.38451 3.75078 1.58351 4.31378C2.40423 6.6462 3.73959 8.76391 5.49051 10.5098C7.2364 12.2607 9.3541 13.596 11.6865 14.4168C12.2495 14.6148 12.8915 14.4488 13.3445 13.9958L14.3145 13.0258C14.3781 12.962 14.4274 12.8854 14.4592 12.8011C14.491 12.7168 14.5045 12.6267 14.4988 12.5368C14.4931 12.4468 14.4684 12.3592 14.4263 12.2795C14.3842 12.1999 14.3256 12.1301 14.2545 12.0748L12.0925 10.3928C12.0165 10.3337 11.928 10.2926 11.8337 10.2727C11.7395 10.2528 11.642 10.2545 11.5485 10.2778L9.49651 10.7908C9.2224 10.8594 8.93519 10.8559 8.66286 10.7805C8.39052 10.7052 8.14235 10.5606 7.94251 10.3608L5.64051 8.05778C5.44073 7.85794 5.29613 7.60977 5.22077 7.33743C5.14541 7.0651 5.14188 6.77789 5.21051 6.50378L5.72351 4.45178C5.74678 4.35831 5.74853 4.26078 5.72861 4.16655C5.70868 4.07231 5.66762 3.98383 5.60851 3.90778L3.92551 1.74478ZM2.26751 0.97978C2.43158 0.815817 2.62863 0.688617 2.84561 0.606617C3.06258 0.524618 3.29451 0.489694 3.52602 0.504163C3.75752 0.518631 3.98329 0.582162 4.18837 0.69054C4.39345 0.798917 4.57313 0.949664 4.71551 1.13278L6.39651 3.29478C6.70551 3.69078 6.81451 4.20778 6.69251 4.69478L6.17951 6.74778C6.15283 6.85431 6.15419 6.96593 6.18345 7.07178C6.21272 7.17762 6.2689 7.27409 6.34651 7.35178L8.65051 9.65378C8.7282 9.73139 8.82467 9.78757 8.93051 9.81683C9.03636 9.8461 9.14798 9.84746 9.25451 9.82078L11.3065 9.30778C11.5472 9.24767 11.7984 9.24308 12.0411 9.29436C12.2838 9.34564 12.5117 9.45145 12.7075 9.60378L14.8695 11.2848C15.6465 11.8888 15.7185 13.0378 15.0225 13.7328L14.0525 14.7028C13.3595 15.3958 12.3225 15.7008 11.3555 15.3608C8.88192 14.4901 6.63606 13.0738 4.78451 11.2168C2.92715 9.36533 1.51045 7.11946 0.639509 4.64578C0.299509 3.67878 0.604509 2.64178 1.29751 1.94778L2.26751 0.97878V0.97978Z" fill="#FC8313"/>
</svg>
