<svg width="16" height="16" viewBox="0 0 16 16" fill="none" xmlns="http://www.w3.org/2000/svg">
<g clip-path="url(#clip0)">
<path fill-rule="evenodd" clip-rule="evenodd" d="M12.8299 6.70564C12.6372 5.9858 12.2859 5.31814 11.8019 4.75152C11.3179 4.18489 10.7134 3.73362 10.0325 3.43071C9.35161 3.1278 8.61164 2.98092 7.8667 3.00081C7.12175 3.02069 6.39068 3.20684 5.72694 3.54564C5.66837 3.57545 5.6045 3.59343 5.53898 3.59856C5.47346 3.60369 5.40757 3.59586 5.34508 3.57552C5.28259 3.55519 5.22471 3.52274 5.17475 3.48004C5.1248 3.43733 5.08375 3.38521 5.05394 3.32664C5.02413 3.26807 5.00614 3.2042 5.00102 3.13868C4.99589 3.07316 5.00372 3.00728 5.02405 2.94478C5.04439 2.88229 5.07684 2.82441 5.11954 2.77446C5.16224 2.7245 5.21437 2.68345 5.27294 2.65364C6.53601 2.00914 7.98653 1.83282 9.36722 2.15594C10.7479 2.47906 11.9696 3.28074 12.8155 4.41879C13.6614 5.55685 14.0769 6.95772 13.9883 8.37295C13.8997 9.78819 13.3127 11.1263 12.3315 12.15C11.3503 13.1737 10.0382 13.8167 8.62796 13.9651C7.21775 14.1135 5.80055 13.7577 4.62771 12.9607C3.45487 12.1637 2.60221 10.9771 2.22095 9.61132C1.83969 8.24554 1.95447 6.78886 2.54494 5.49964C2.57232 5.43989 2.6112 5.38612 2.65936 5.34139C2.70752 5.29667 2.76402 5.26186 2.82563 5.23897C2.88725 5.21608 2.95276 5.20555 3.01844 5.20799C3.08412 5.21042 3.14868 5.22576 3.20844 5.25314C3.26819 5.28052 3.32196 5.3194 3.36669 5.36756C3.41141 5.41573 3.44621 5.47223 3.4691 5.53384C3.49199 5.59545 3.50252 5.66097 3.50009 5.72665C3.49766 5.79233 3.48232 5.85689 3.45494 5.91664C3.12063 6.64609 2.96679 7.44529 3.00642 8.24672C3.04605 9.04816 3.27798 9.82828 3.68262 10.5212C4.08727 11.2141 4.65273 11.7995 5.33125 12.2278C6.00977 12.6561 6.78142 12.9149 7.581 12.9822C8.38059 13.0495 9.18462 12.9233 9.92519 12.6144C10.6658 12.3055 11.3211 11.8229 11.8359 11.2074C12.3506 10.5918 12.7097 9.86145 12.8827 9.07791C13.0557 8.29438 13.0376 7.48071 12.8299 6.70564Z" fill="#7A7A7A"/>
<path fill-rule="evenodd" clip-rule="evenodd" d="M7.85483 0.146833C7.80839 0.10027 7.75321 0.0633267 7.69247 0.0381202C7.63172 0.0129138 7.5666 -6.10352e-05 7.50083 -6.10352e-05C7.43507 -6.10352e-05 7.36994 0.0129138 7.3092 0.0381202C7.24845 0.0633267 7.19328 0.10027 7.14683 0.146833L4.64683 2.64683C4.60027 2.69328 4.56333 2.74845 4.53812 2.8092C4.51291 2.86994 4.49994 2.93507 4.49994 3.00083C4.49994 3.0666 4.51291 3.13172 4.53812 3.19247C4.56333 3.25321 4.60027 3.30839 4.64683 3.35483L7.14683 5.85483C7.24072 5.94872 7.36806 6.00146 7.50083 6.00146C7.63361 6.00146 7.76095 5.94872 7.85483 5.85483C7.94872 5.76095 8.00146 5.63361 8.00146 5.50083C8.00146 5.36806 7.94872 5.24072 7.85483 5.14683L5.70783 3.00083L7.85483 0.854833C7.9014 0.808387 7.93834 0.753211 7.96354 0.692466C7.98875 0.631721 8.00173 0.5666 8.00173 0.500833C8.00173 0.435065 7.98875 0.369944 7.96354 0.309199C7.93834 0.248454 7.9014 0.193278 7.85483 0.146833Z" fill="#7A7A7A"/>
</g>
<defs>
<clipPath id="clip0">
<rect width="16" height="16" fill="white"/>
</clipPath>
</defs>
</svg>
