<svg width="13" height="14" viewBox="0 0 13 14" fill="none" xmlns="http://www.w3.org/2000/svg">
<g clip-path="url(#clip0)">
<path fill-rule="evenodd" clip-rule="evenodd" d="M8.48315 8.98408C8.55861 8.90854 8.64822 8.84861 8.74685 8.80772C8.84549 8.76683 8.95122 8.74579 9.05799 8.74579C9.16477 8.74579 9.2705 8.76683 9.36913 8.80772C9.46777 8.84861 9.55738 8.90854 9.63284 8.98408L12.761 12.1122C12.9134 12.2646 12.9991 12.4712 12.9992 12.6868C12.9993 12.9023 12.9137 13.109 12.7614 13.2615C12.609 13.4139 12.4023 13.4996 12.1868 13.4997C11.9713 13.4998 11.7645 13.4142 11.6121 13.2619L8.48396 10.1338C8.40842 10.0583 8.34849 9.9687 8.3076 9.87007C8.26671 9.77143 8.24567 9.6657 8.24567 9.55893C8.24567 9.45215 8.26671 9.34642 8.3076 9.24779C8.34849 9.14915 8.40842 9.05954 8.48396 8.98408H8.48315Z" fill="#E7E7E7"/>
<path fill-rule="evenodd" clip-rule="evenodd" d="M5.28125 10.25C5.86809 10.25 6.44919 10.1344 6.99137 9.90984C7.53354 9.68526 8.02617 9.3561 8.44113 8.94113C8.8561 8.52617 9.18526 8.03354 9.40984 7.49137C9.63441 6.94919 9.75 6.36809 9.75 5.78125C9.75 5.19441 9.63441 4.61331 9.40984 4.07113C9.18526 3.52896 8.8561 3.03633 8.44113 2.62137C8.02617 2.2064 7.53354 1.87724 6.99137 1.65266C6.44919 1.42809 5.86809 1.3125 5.28125 1.3125C4.09606 1.3125 2.95942 1.78331 2.12137 2.62137C1.28331 3.45942 0.8125 4.59606 0.8125 5.78125C0.8125 6.96644 1.28331 8.10308 2.12137 8.94113C2.95942 9.77919 4.09606 10.25 5.28125 10.25ZM10.5625 5.78125C10.5625 7.18192 10.0061 8.52523 9.01566 9.51566C8.02523 10.5061 6.68192 11.0625 5.28125 11.0625C3.88058 11.0625 2.53727 10.5061 1.54684 9.51566C0.556416 8.52523 0 7.18192 0 5.78125C0 4.38058 0.556416 3.03727 1.54684 2.04684C2.53727 1.05642 3.88058 0.5 5.28125 0.5C6.68192 0.5 8.02523 1.05642 9.01566 2.04684C10.0061 3.03727 10.5625 4.38058 10.5625 5.78125Z" fill="#E7E7E7"/>
</g>
<defs>
<clipPath id="clip0">
<rect width="13" height="13" fill="white" transform="translate(0 0.5)"/>
</clipPath>
</defs>
</svg>
