<svg width="16" height="16" viewBox="0 0 16 16" fill="none" xmlns="http://www.w3.org/2000/svg">
<path fill-rule="evenodd" clip-rule="evenodd" d="M2.167 3C1.522 3 1 3.522 1 4.167V10.833C1 11.478 1.522 12 2.167 12H8.833C9.478 12 10 11.478 10 10.833V4.167C10 3.522 9.478 3 8.833 3H2.167ZM0 4.167C0 2.97 0.97 2 2.167 2H8.833C10.03 2 11 2.97 11 4.167V10.833C11 12.03 10.03 13 8.833 13H2.167C1.59228 13 1.04109 12.7717 0.6347 12.3653C0.228308 11.9589 0 11.4077 0 10.833V4.167Z" fill="#FC8313"/>
<path fill-rule="evenodd" clip-rule="evenodd" d="M10.751 5.15012L13.519 3.54512C13.5666 3.51646 13.6208 3.50075 13.6763 3.49956C13.7318 3.49837 13.7867 3.51174 13.8355 3.53834C13.8842 3.56494 13.9251 3.60384 13.9542 3.65117C13.9832 3.6985 13.9994 3.75262 14.001 3.80812V11.1921C14.001 11.4201 13.741 11.5851 13.519 11.4561L10.752 9.85112L10.25 10.7161L13.017 12.3211C13.876 12.8191 15.001 12.2261 15.001 11.1921V3.80812C15.001 2.77512 13.876 2.18212 13.017 2.68012L10.251 4.28512L10.753 5.15012H10.751Z" fill="#FC8313"/>
</svg>
