<svg width="16" height="16" viewBox="0 0 16 16" fill="none" xmlns="http://www.w3.org/2000/svg">
<path d="M12.3304 3.62054C11.3237 2.58929 9.94866 2 8.47545 2C5.47991 2 3.02455 4.45536 3.02455 7.45089C3.02455 8.43304 3.29464 9.36607 3.76116 10.1763L3 13L5.87277 12.2634C6.68304 12.6808 7.56696 12.9263 8.47545 12.9263C11.4955 12.9263 14 10.471 14 7.47545C14 6.00223 13.3616 4.65179 12.3304 3.62054ZM8.47545 11.9933C7.66518 11.9933 6.87946 11.7723 6.16741 11.3549L6.02009 11.2567L4.30134 11.7232L4.76786 10.0536L4.64509 9.8817C4.20312 9.14509 3.95759 8.31027 3.95759 7.45089C3.95759 4.97098 5.99554 2.93304 8.5 2.93304C9.70312 2.93304 10.8326 3.39955 11.692 4.25893C12.5513 5.1183 13.067 6.24777 13.067 7.47545C13.067 9.95536 10.9799 11.9933 8.47545 11.9933ZM10.9799 8.60491C10.8326 8.53125 10.1696 8.21205 10.0469 8.16295C9.92411 8.11384 9.82589 8.08929 9.72768 8.23661C9.65402 8.35938 9.38393 8.67857 9.31027 8.77679C9.21205 8.85045 9.13839 8.875 9.01562 8.80134C8.20536 8.40848 7.68973 8.08929 7.14955 7.1808C7.00223 6.93527 7.29688 6.95982 7.54241 6.4442C7.59152 6.34598 7.56696 6.27232 7.54241 6.19866C7.51786 6.125 7.22321 5.46205 7.125 5.19196C7.00223 4.92188 6.90402 4.94643 6.8058 4.94643C6.73214 4.94643 6.63393 4.94643 6.56027 4.94643C6.46205 4.94643 6.31473 4.97098 6.19196 5.1183C6.0692 5.26562 5.72545 5.58482 5.72545 6.24777C5.72545 6.93527 6.19196 7.57366 6.26562 7.67188C6.33929 7.74554 7.22321 9.12054 8.59821 9.70982C9.45759 10.1027 9.80134 10.1272 10.2433 10.0536C10.4888 10.029 11.029 9.73438 11.1518 9.41518C11.2746 9.09598 11.2746 8.82589 11.2254 8.77679C11.2009 8.70312 11.1027 8.67857 10.9799 8.60491Z" fill="#FC8313"/>
</svg>
